<?xml version="1.0" encoding="UTF-8"?>
<!DOCTYPE svg PUBLIC "-//W3C//DTD SVG 1.1//EN" "http://www.w3.org/Graphics/SVG/1.1/DTD/svg11.dtd">
<svg xmlns="http://www.w3.org/2000/svg" version="1.1" width="516px" height="502px" style="shape-rendering:geometricPrecision; text-rendering:geometricPrecision; image-rendering:optimizeQuality; fill-rule:evenodd; clip-rule:evenodd" xmlns:xlink="http://www.w3.org/1999/xlink">
<g><path style="opacity:0.967" fill="#000000" d="M 66.5,16.5 C 73.2604,15.3744 77.5937,18.0411 79.5,24.5C 75.5221,31.4587 72.3554,38.792 70,46.5C 68.6496,53.2185 68.6496,59.8851 70,66.5C 82.3986,81.9031 95.8986,96.4031 110.5,110C 121.833,117 133.167,124 144.5,131C 158.351,134.642 172.351,137.642 186.5,140C 197.619,144.726 208.619,149.726 219.5,155C 222.471,155.794 225.471,156.461 228.5,157C 235.833,157.167 243.167,157.333 250.5,157.5C 258.906,157.621 267.239,157.121 275.5,156C 276.804,155.196 277.471,154.029 277.5,152.5C 275.947,147.726 274.114,143.06 272,138.5C 269.823,114.344 280.656,104.511 304.5,109C 307.735,110.36 310.235,112.527 312,115.5C 316.646,127.375 316.479,139.208 311.5,151C 311.903,152.473 312.57,153.806 313.5,155C 316.774,156.202 320.107,157.202 323.5,158C 338.777,160.094 354.11,161.594 369.5,162.5C 380.984,161.795 392.318,160.128 403.5,157.5C 415.792,159.157 428.126,159.657 440.5,159C 444.877,158.812 448.877,157.479 452.5,155C 458.766,148.727 465.6,143.227 473,138.5C 474.5,138.667 475.333,139.5 475.5,141C 474.098,144.239 472.098,147.072 469.5,149.5C 473.594,153.35 475.094,158.017 474,163.5C 455.607,169.848 436.773,174.681 417.5,178C 396.396,180.277 375.396,183.277 354.5,187C 342.644,192.214 336.144,201.381 335,214.5C 333.232,234.157 331.565,253.824 330,273.5C 329.435,280.323 328.102,286.99 326,293.5C 319.913,308.088 313.247,322.422 306,336.5C 303.928,342.048 302.262,347.715 301,353.5C 299.287,357.873 296.787,361.707 293.5,365C 295,366.5 296.5,368 298,369.5C 297.557,384.272 295.891,398.939 293,413.5C 290.906,421.096 286.072,425.762 278.5,427.5C 270.925,426.493 267.925,422.327 269.5,415C 268.809,413.933 268.309,412.766 268,411.5C 252.033,410.196 246.366,401.863 251,386.5C 255.667,377.167 260.333,367.833 265,358.5C 265.939,351.512 266.272,344.512 266,337.5C 265.163,335.993 263.996,335.493 262.5,336C 254.287,349.59 246.454,363.423 239,377.5C 229.407,400.02 218.74,422.02 207,443.5C 202.91,454.191 199.91,465.191 198,476.5C 197.5,478.333 196.333,479.5 194.5,480C 188.144,480.398 181.811,480.065 175.5,479C 170.015,477.197 168.515,473.697 171,468.5C 176.835,463.996 181.169,458.329 184,451.5C 186.944,444.61 189.611,437.61 192,430.5C 194.582,417.836 198.249,405.502 203,393.5C 209.411,380.344 216.078,367.344 223,354.5C 225.277,350.205 224.944,346.205 222,342.5C 221.333,339.5 221.333,336.5 222,333.5C 229.127,317.245 235.127,300.578 240,283.5C 244.667,272.833 249.333,262.167 254,251.5C 256.078,244.609 257.578,237.609 258.5,230.5C 257.425,222.537 255.259,214.87 252,207.5C 251.088,203.205 250.421,198.872 250,194.5C 249.215,192.714 248.049,191.214 246.5,190C 237.228,186.365 228.561,181.699 220.5,176C 195.461,168.877 171.461,159.21 148.5,147C 147.5,146.333 146.5,146.333 145.5,147C 165.399,168.143 185.066,189.477 204.5,211C 202.796,213.757 200.462,215.09 197.5,215C 175.13,190.965 153.13,166.632 131.5,142C 127.637,140.819 124.137,138.986 121,136.5C 118.458,130.635 115.125,125.301 111,120.5C 96.5,105.333 82,90.1667 67.5,75C 62.7372,72.2024 58.2372,69.0357 54,65.5C 50.7637,50.0042 53.097,35.3376 61,21.5C 62.7297,19.5981 64.563,17.9314 66.5,16.5 Z"/></g>
<g><path style="opacity:0.948" fill="#000000" d="M 228.5,108.5 C 241.85,108.361 255.183,108.694 268.5,109.5C 267.237,114.032 265.403,118.365 263,122.5C 262.358,126.491 261.858,130.491 261.5,134.5C 242.801,134.948 224.134,135.948 205.5,137.5C 188.086,130.782 170.086,126.282 151.5,124C 150.167,123.333 150.167,122.667 151.5,122C 176.776,114.455 202.443,109.955 228.5,108.5 Z"/></g>
<g><path style="opacity:0.937" fill="#000000" d="M 323.5,119.5 C 347.306,126.07 369.973,135.403 391.5,147.5C 392.386,148.325 392.719,149.325 392.5,150.5C 370.027,154.589 347.693,153.755 325.5,148C 323.59,147.592 322.59,146.425 322.5,144.5C 324.002,136.168 324.335,127.835 323.5,119.5 Z"/></g>
<g><path style="opacity:0.952" fill="#000000" d="M 105.5,139.5 C 112.198,146.529 119.532,152.862 127.5,158.5C 119.586,162.706 111.753,167.04 104,171.5C 103.414,188.302 104.581,204.969 107.5,221.5C 106.833,221.833 106.167,222.167 105.5,222.5C 96.8,219.989 88.3,216.989 80,213.5C 77.5236,196.259 76.5236,178.925 77,161.5C 77.9643,157.532 80.1309,154.365 83.5,152C 91.0584,148.059 98.3917,143.892 105.5,139.5 Z"/></g>
<g><path style="opacity:0.956" fill="#000000" d="M 396.5,189.5 C 399.5,189.5 402.5,189.5 405.5,189.5C 402.573,251.23 385.407,308.564 354,361.5C 339.259,384.966 321.259,405.633 300,423.5C 299.5,423.333 299,423.167 298.5,423C 300.255,420.07 301.422,416.903 302,413.5C 303.756,401.781 305.756,390.114 308,378.5C 346.174,332.04 368.841,278.706 376,218.5C 377.164,209.526 377.998,200.526 378.5,191.5C 384.699,191.348 390.699,190.682 396.5,189.5 Z"/></g>
<g><path style="opacity:0.955" fill="#000000" d="M 195.5,231.5 C 204.951,231.134 210.785,235.467 213,244.5C 212.979,265.688 210.979,286.688 207,307.5C 204.108,313.392 199.608,317.559 193.5,320C 185.469,321.615 177.469,323.282 169.5,325C 164.831,334.002 158.997,342.169 152,349.5C 151.276,353.129 149.443,355.962 146.5,358C 146.878,363.266 149.378,367.099 154,369.5C 154.973,371.392 155.64,373.392 156,375.5C 158.74,376.144 161.24,377.311 163.5,379C 164.833,381.333 166.167,383.667 167.5,386C 169.433,386.251 171.266,386.751 173,387.5C 173.497,390.146 173.664,392.813 173.5,395.5C 150.157,395.833 126.824,395.5 103.5,394.5C 101.712,387.782 104.379,384.948 111.5,386C 113.113,380.053 116.947,376.553 123,375.5C 122.989,371.174 124.989,368.174 129,366.5C 130.404,364.361 131.237,362.028 131.5,359.5C 129.224,356.608 127.724,353.274 127,349.5C 120.396,342.231 114.563,334.398 109.5,326C 98.1747,326.042 87.508,323.375 77.5,318C 72.7146,313.931 69.8812,308.764 69,302.5C 66.4143,283.569 65.0809,264.569 65,245.5C 66.7605,237.861 71.5939,233.861 79.5,233.5C 89.8545,234.677 97.5212,239.844 102.5,249C 103.833,249.667 105.167,250.333 106.5,251C 127.833,251.667 149.167,251.667 170.5,251C 174.847,247.652 178.514,243.652 181.5,239C 185.826,235.673 190.492,233.173 195.5,231.5 Z M 197.5,240.5 C 199.821,240.658 201.654,241.658 203,243.5C 203.906,247.279 204.406,251.112 204.5,255C 203.178,271.229 201.345,287.396 199,303.5C 196.708,307.788 193.208,310.622 188.5,312C 184.225,313.158 179.891,313.992 175.5,314.5C 179.202,301.856 182.202,289.023 184.5,276C 183.906,272.06 181.739,269.226 178,267.5C 176.589,265.35 175.755,263.016 175.5,260.5C 177.288,260.785 178.955,260.452 180.5,259.5C 183.05,250.288 188.716,243.955 197.5,240.5 Z M 77.5,242.5 C 87.3844,243.709 94.051,249.043 97.5,258.5C 99.3279,259.795 101.328,260.795 103.5,261.5C 102.106,266.293 99.2725,269.959 95,272.5C 95.3916,287.238 98.5583,301.405 104.5,315C 97.3611,316.151 90.3611,314.818 83.5,311C 81.3834,309.269 79.8834,307.102 79,304.5C 75.8645,285.617 74.1978,266.617 74,247.5C 74.9973,245.677 76.1639,244.01 77.5,242.5 Z"/></g>
<g><path style="opacity:0.938" fill="#000000" d="M 257.5,421.5 C 258.496,421.414 259.329,421.748 260,422.5C 264.311,432.124 271.811,436.957 282.5,437C 269.794,445.936 256.294,453.436 242,459.5C 232.435,456.8 223.602,452.634 215.5,447C 219.247,438.926 223.414,431.093 228,423.5C 232.399,426.075 236.899,428.408 241.5,430.5C 247.182,427.995 252.516,424.995 257.5,421.5 Z"/></g>
</svg>
